<svg width="232" height="195" viewBox="0 0 232 195" fill="none" xmlns="http://www.w3.org/2000/svg">
<rect width="220" height="140" transform="translate(0 42)" fill="none"/>
<g filter="url(#filter0_f_995_40593)">
<path d="M182 97.5C182 123.733 160.733 145 134.5 145C108.266 145 87 123.733 87 97.5C87 71.2664 108.266 50 134.5 50C160.733 50 182 71.2664 182 97.5Z" fill="url(#paint0_linear_995_40593)"/>
</g>
<path d="M170.25 110.5C170.25 142.947 143.947 169.25 111.5 169.25C79.0533 169.25 52.75 142.947 52.75 110.5C52.75 78.0532 79.0533 51.75 111.5 51.75C143.947 51.75 170.25 78.0532 170.25 110.5Z" stroke="black" stroke-width="1.5"/>
<path d="M161.25 110.5C161.25 137.976 138.976 160.25 111.5 160.25C84.0239 160.25 61.75 137.976 61.75 110.5C61.75 83.0239 84.0239 60.75 111.5 60.75C138.976 60.75 161.25 83.0239 161.25 110.5Z" stroke="black" stroke-width="1.5"/>
<path d="M111 67V81" stroke="black" stroke-width="1.5"/>
<path d="M111 141V155" stroke="black" stroke-width="1.5"/>
<path d="M67 111H81" stroke="black" stroke-width="1.5"/>
<path d="M141 111H155" stroke="black" stroke-width="1.5"/>
<path d="M107.75 111.25V88.7501C107.751 88.75 107.752 88.75 107.753 88.75H114.247C114.248 88.75 114.249 88.75 114.25 88.7501V111.25C114.249 111.25 114.248 111.25 114.247 111.25H107.753C107.752 111.25 107.751 111.25 107.75 111.25Z" fill="white" stroke="black" stroke-width="1.5"/>
<path d="M137.255 133.851L137.264 133.843L137.255 133.851C137.255 133.851 137.255 133.851 137.255 133.851L137.255 133.851ZM111.996 107.777L137.247 133.843L133.004 138.223L107.753 112.158L111.996 107.777ZM132.963 138.265C132.963 138.265 132.963 138.265 132.963 138.265L132.963 138.265L132.963 138.265ZM112.494 107.213L111.996 107.695L112.494 107.213Z" fill="white" stroke="black" stroke-width="1.5"/>
<path d="M111 67V81" stroke="black" stroke-width="1.5"/>
<path d="M111 141V155" stroke="black" stroke-width="1.5"/>
<path d="M67 111H81" stroke="black" stroke-width="1.5"/>
<path d="M141 111H155" stroke="black" stroke-width="1.5"/>
<path d="M111 67V81" stroke="black" stroke-width="1.5"/>
<path d="M111 141V155" stroke="black" stroke-width="1.5"/>
<path d="M67 111H81" stroke="black" stroke-width="1.5"/>
<path d="M141 111H155" stroke="black" stroke-width="1.5"/>
<path fill-rule="evenodd" clip-rule="evenodd" d="M111 81V67H112V81H111Z" fill="black"/>
<path fill-rule="evenodd" clip-rule="evenodd" d="M111 155V141H112V155H111Z" fill="black"/>
<path fill-rule="evenodd" clip-rule="evenodd" d="M81 111H67V110H81V111Z" fill="black"/>
<path fill-rule="evenodd" clip-rule="evenodd" d="M155 111H141V110H155V111Z" fill="black"/>
<path d="M111.5 118C115.642 118 119 114.642 119 110.5C119 106.358 115.642 103 111.5 103C107.358 103 104 106.358 104 110.5C104 114.642 107.358 118 111.5 118Z" fill="white" stroke="black" stroke-width="1.5"/>
<defs>
<filter id="filter0_f_995_40593" x="37" y="0" width="195" height="195" filterUnits="userSpaceOnUse" color-interpolation-filters="sRGB">
<feFlood flood-opacity="0" result="BackgroundImageFix"/>
<feBlend mode="normal" in="SourceGraphic" in2="BackgroundImageFix" result="shape"/>
<feGaussianBlur stdDeviation="25" result="effect1_foregroundBlur_995_40593"/>
</filter>
</defs>
</svg>
